<mxfile host="app.diagrams.net" agent="Mozilla/5.0 (Windows NT 10.0; Win64; x64) AppleWebKit/537.36 (KHTML, like Gecko) Chrome/140.0.0.0 Safari/537.36" version="28.2.3">
  <diagram name="Trang-1" id="tx0tOLe0ebeHfLNTeAjb">
    <mxGraphModel dx="786" dy="451" grid="1" gridSize="10" guides="1" tooltips="1" connect="1" arrows="1" fold="1" page="1" pageScale="1" pageWidth="827" pageHeight="1169" math="0" shadow="0">
      <root>
        <mxCell id="0" />
        <mxCell id="1" parent="0" />
        <mxCell id="BoBG6MyyK4TwJBYPPZLz-1" value="Start" style="ellipse;whiteSpace=wrap;html=1;" parent="1" vertex="1">
          <mxGeometry x="340" y="10" width="120" height="80" as="geometry" />
        </mxCell>
        <mxCell id="dcd22xgBDRz-Wt_h7stV-1" value="End" style="ellipse;whiteSpace=wrap;html=1;" vertex="1" parent="1">
          <mxGeometry x="340" y="1260" width="120" height="80" as="geometry" />
        </mxCell>
        <mxCell id="dcd22xgBDRz-Wt_h7stV-2" value="Nhập thông tin cá nhân" style="shape=parallelogram;perimeter=parallelogramPerimeter;whiteSpace=wrap;html=1;fixedSize=1;" vertex="1" parent="1">
          <mxGeometry x="340" y="120" width="120" height="60" as="geometry" />
        </mxCell>
        <mxCell id="dcd22xgBDRz-Wt_h7stV-3" value="Tìm kiếm món ăn" style="shape=parallelogram;perimeter=parallelogramPerimeter;whiteSpace=wrap;html=1;fixedSize=1;" vertex="1" parent="1">
          <mxGeometry x="335" y="220" width="120" height="60" as="geometry" />
        </mxCell>
        <mxCell id="dcd22xgBDRz-Wt_h7stV-4" value="Món ăn hợp lệ" style="rhombus;whiteSpace=wrap;html=1;" vertex="1" parent="1">
          <mxGeometry x="340" y="310" width="110" height="100" as="geometry" />
        </mxCell>
        <mxCell id="dcd22xgBDRz-Wt_h7stV-5" value="" style="curved=1;endArrow=classic;html=1;rounded=0;entryX=1;entryY=0.5;entryDx=0;entryDy=0;" edge="1" parent="1" target="dcd22xgBDRz-Wt_h7stV-3">
          <mxGeometry width="50" height="50" relative="1" as="geometry">
            <mxPoint x="450" y="360" as="sourcePoint" />
            <mxPoint x="500" y="310" as="targetPoint" />
            <Array as="points">
              <mxPoint x="500" y="360" />
              <mxPoint x="570" y="280" />
            </Array>
          </mxGeometry>
        </mxCell>
        <mxCell id="dcd22xgBDRz-Wt_h7stV-6" value="Không hợp lệ" style="edgeLabel;html=1;align=center;verticalAlign=middle;resizable=0;points=[];" vertex="1" connectable="0" parent="dcd22xgBDRz-Wt_h7stV-5">
          <mxGeometry x="-0.2851" y="-1" relative="1" as="geometry">
            <mxPoint as="offset" />
          </mxGeometry>
        </mxCell>
        <mxCell id="dcd22xgBDRz-Wt_h7stV-7" value="" style="endArrow=classic;html=1;rounded=0;entryX=0.5;entryY=0;entryDx=0;entryDy=0;" edge="1" parent="1" target="dcd22xgBDRz-Wt_h7stV-2">
          <mxGeometry width="50" height="50" relative="1" as="geometry">
            <mxPoint x="400" y="90" as="sourcePoint" />
            <mxPoint x="450" y="40" as="targetPoint" />
          </mxGeometry>
        </mxCell>
        <mxCell id="dcd22xgBDRz-Wt_h7stV-8" value="" style="endArrow=classic;html=1;rounded=0;exitX=0.5;exitY=1;exitDx=0;exitDy=0;" edge="1" parent="1" source="dcd22xgBDRz-Wt_h7stV-2">
          <mxGeometry width="50" height="50" relative="1" as="geometry">
            <mxPoint x="230" y="220" as="sourcePoint" />
            <mxPoint x="400" y="220" as="targetPoint" />
          </mxGeometry>
        </mxCell>
        <mxCell id="dcd22xgBDRz-Wt_h7stV-9" value="" style="endArrow=classic;html=1;rounded=0;exitX=0.5;exitY=1;exitDx=0;exitDy=0;entryX=0.5;entryY=0;entryDx=0;entryDy=0;" edge="1" parent="1" source="dcd22xgBDRz-Wt_h7stV-3" target="dcd22xgBDRz-Wt_h7stV-4">
          <mxGeometry width="50" height="50" relative="1" as="geometry">
            <mxPoint x="180" y="340" as="sourcePoint" />
            <mxPoint x="230" y="290" as="targetPoint" />
          </mxGeometry>
        </mxCell>
        <mxCell id="dcd22xgBDRz-Wt_h7stV-10" value="Chọn món ăn" style="shape=parallelogram;perimeter=parallelogramPerimeter;whiteSpace=wrap;html=1;fixedSize=1;" vertex="1" parent="1">
          <mxGeometry x="330" y="510" width="130" height="60" as="geometry" />
        </mxCell>
        <mxCell id="dcd22xgBDRz-Wt_h7stV-11" value="Nhập thông tin địa chỉ nhận hàng" style="shape=parallelogram;perimeter=parallelogramPerimeter;whiteSpace=wrap;html=1;fixedSize=1;" vertex="1" parent="1">
          <mxGeometry x="317.5" y="600" width="155" height="60" as="geometry" />
        </mxCell>
        <mxCell id="dcd22xgBDRz-Wt_h7stV-14" value="Đưa ra các bảng giá , các dịch vụ&amp;nbsp;" style="rounded=0;whiteSpace=wrap;html=1;" vertex="1" parent="1">
          <mxGeometry x="335" y="700" width="120" height="60" as="geometry" />
        </mxCell>
        <mxCell id="dcd22xgBDRz-Wt_h7stV-15" value="Chọn các thông tin , phương thức thanh toán" style="shape=parallelogram;perimeter=parallelogramPerimeter;whiteSpace=wrap;html=1;fixedSize=1;" vertex="1" parent="1">
          <mxGeometry x="310" y="800" width="170" height="60" as="geometry" />
        </mxCell>
        <mxCell id="dcd22xgBDRz-Wt_h7stV-16" value="Thanh toán thành công&amp;nbsp;" style="rhombus;whiteSpace=wrap;html=1;" vertex="1" parent="1">
          <mxGeometry x="317.5" y="910" width="160" height="80" as="geometry" />
        </mxCell>
        <mxCell id="dcd22xgBDRz-Wt_h7stV-18" value="" style="curved=1;endArrow=classic;html=1;rounded=0;entryX=1;entryY=0.5;entryDx=0;entryDy=0;exitX=1;exitY=0.5;exitDx=0;exitDy=0;" edge="1" parent="1" source="dcd22xgBDRz-Wt_h7stV-16" target="dcd22xgBDRz-Wt_h7stV-15">
          <mxGeometry width="50" height="50" relative="1" as="geometry">
            <mxPoint x="475" y="930" as="sourcePoint" />
            <mxPoint x="525" y="870" as="targetPoint" />
            <Array as="points">
              <mxPoint x="540" y="920" />
              <mxPoint x="580" y="900" />
              <mxPoint x="640" y="840" />
            </Array>
          </mxGeometry>
        </mxCell>
        <mxCell id="dcd22xgBDRz-Wt_h7stV-19" value="Không thành công" style="edgeLabel;html=1;align=center;verticalAlign=middle;resizable=0;points=[];" vertex="1" connectable="0" parent="dcd22xgBDRz-Wt_h7stV-18">
          <mxGeometry x="-0.1092" y="6" relative="1" as="geometry">
            <mxPoint x="-1" as="offset" />
          </mxGeometry>
        </mxCell>
        <mxCell id="dcd22xgBDRz-Wt_h7stV-20" value="Các món ăn" style="rounded=0;whiteSpace=wrap;html=1;" vertex="1" parent="1">
          <mxGeometry x="330" y="440" width="130" height="30" as="geometry" />
        </mxCell>
        <mxCell id="dcd22xgBDRz-Wt_h7stV-21" value="Gửi thông tin đơn hàng , thời gian" style="rounded=0;whiteSpace=wrap;html=1;" vertex="1" parent="1">
          <mxGeometry x="337.5" y="1030" width="120" height="60" as="geometry" />
        </mxCell>
        <mxCell id="dcd22xgBDRz-Wt_h7stV-22" value="Nhập đánh giá của khách hàng" style="shape=parallelogram;perimeter=parallelogramPerimeter;whiteSpace=wrap;html=1;fixedSize=1;" vertex="1" parent="1">
          <mxGeometry x="330" y="1140" width="135" height="60" as="geometry" />
        </mxCell>
        <mxCell id="dcd22xgBDRz-Wt_h7stV-23" value="" style="endArrow=classic;html=1;rounded=0;exitX=0.5;exitY=1;exitDx=0;exitDy=0;entryX=0.5;entryY=0;entryDx=0;entryDy=0;" edge="1" parent="1" source="dcd22xgBDRz-Wt_h7stV-4" target="dcd22xgBDRz-Wt_h7stV-20">
          <mxGeometry width="50" height="50" relative="1" as="geometry">
            <mxPoint x="380" y="460" as="sourcePoint" />
            <mxPoint x="430" y="410" as="targetPoint" />
          </mxGeometry>
        </mxCell>
        <mxCell id="dcd22xgBDRz-Wt_h7stV-34" value="Hợp lệ" style="edgeLabel;html=1;align=center;verticalAlign=middle;resizable=0;points=[];" vertex="1" connectable="0" parent="dcd22xgBDRz-Wt_h7stV-23">
          <mxGeometry x="-0.4667" relative="1" as="geometry">
            <mxPoint as="offset" />
          </mxGeometry>
        </mxCell>
        <mxCell id="dcd22xgBDRz-Wt_h7stV-24" value="" style="endArrow=classic;html=1;rounded=0;exitX=0.5;exitY=1;exitDx=0;exitDy=0;" edge="1" parent="1" source="dcd22xgBDRz-Wt_h7stV-20" target="dcd22xgBDRz-Wt_h7stV-10">
          <mxGeometry width="50" height="50" relative="1" as="geometry">
            <mxPoint x="120" y="550" as="sourcePoint" />
            <mxPoint x="170" y="500" as="targetPoint" />
          </mxGeometry>
        </mxCell>
        <mxCell id="dcd22xgBDRz-Wt_h7stV-25" value="" style="endArrow=classic;html=1;rounded=0;exitX=0.5;exitY=1;exitDx=0;exitDy=0;entryX=0.5;entryY=0;entryDx=0;entryDy=0;" edge="1" parent="1" source="dcd22xgBDRz-Wt_h7stV-10" target="dcd22xgBDRz-Wt_h7stV-11">
          <mxGeometry width="50" height="50" relative="1" as="geometry">
            <mxPoint x="160" y="670" as="sourcePoint" />
            <mxPoint x="210" y="620" as="targetPoint" />
          </mxGeometry>
        </mxCell>
        <mxCell id="dcd22xgBDRz-Wt_h7stV-26" value="" style="endArrow=classic;html=1;rounded=0;exitX=0.5;exitY=1;exitDx=0;exitDy=0;entryX=0.5;entryY=0;entryDx=0;entryDy=0;" edge="1" parent="1" source="dcd22xgBDRz-Wt_h7stV-11" target="dcd22xgBDRz-Wt_h7stV-14">
          <mxGeometry width="50" height="50" relative="1" as="geometry">
            <mxPoint x="380" y="660" as="sourcePoint" />
            <mxPoint x="430" y="610" as="targetPoint" />
          </mxGeometry>
        </mxCell>
        <mxCell id="dcd22xgBDRz-Wt_h7stV-27" value="" style="endArrow=classic;html=1;rounded=0;exitX=0.5;exitY=1;exitDx=0;exitDy=0;" edge="1" parent="1" source="dcd22xgBDRz-Wt_h7stV-14" target="dcd22xgBDRz-Wt_h7stV-15">
          <mxGeometry width="50" height="50" relative="1" as="geometry">
            <mxPoint x="110" y="860" as="sourcePoint" />
            <mxPoint x="160" y="810" as="targetPoint" />
          </mxGeometry>
        </mxCell>
        <mxCell id="dcd22xgBDRz-Wt_h7stV-28" value="" style="endArrow=classic;html=1;rounded=0;exitX=0.5;exitY=1;exitDx=0;exitDy=0;" edge="1" parent="1" source="dcd22xgBDRz-Wt_h7stV-15" target="dcd22xgBDRz-Wt_h7stV-16">
          <mxGeometry width="50" height="50" relative="1" as="geometry">
            <mxPoint x="430" y="910" as="sourcePoint" />
            <mxPoint x="480" y="860" as="targetPoint" />
          </mxGeometry>
        </mxCell>
        <mxCell id="dcd22xgBDRz-Wt_h7stV-29" value="" style="endArrow=classic;html=1;rounded=0;exitX=0.5;exitY=1;exitDx=0;exitDy=0;" edge="1" parent="1" source="dcd22xgBDRz-Wt_h7stV-16" target="dcd22xgBDRz-Wt_h7stV-21">
          <mxGeometry width="50" height="50" relative="1" as="geometry">
            <mxPoint x="50" y="1220" as="sourcePoint" />
            <mxPoint x="100" y="1170" as="targetPoint" />
          </mxGeometry>
        </mxCell>
        <mxCell id="dcd22xgBDRz-Wt_h7stV-33" value="Thành công" style="edgeLabel;html=1;align=center;verticalAlign=middle;resizable=0;points=[];" vertex="1" connectable="0" parent="dcd22xgBDRz-Wt_h7stV-29">
          <mxGeometry x="-0.4" y="3" relative="1" as="geometry">
            <mxPoint as="offset" />
          </mxGeometry>
        </mxCell>
        <mxCell id="dcd22xgBDRz-Wt_h7stV-31" value="" style="endArrow=classic;html=1;rounded=0;exitX=0.5;exitY=1;exitDx=0;exitDy=0;entryX=0.5;entryY=0;entryDx=0;entryDy=0;" edge="1" parent="1" source="dcd22xgBDRz-Wt_h7stV-21" target="dcd22xgBDRz-Wt_h7stV-22">
          <mxGeometry width="50" height="50" relative="1" as="geometry">
            <mxPoint x="410" y="1140" as="sourcePoint" />
            <mxPoint x="460" y="1090" as="targetPoint" />
          </mxGeometry>
        </mxCell>
        <mxCell id="dcd22xgBDRz-Wt_h7stV-32" value="" style="endArrow=classic;html=1;rounded=0;exitX=0.5;exitY=1;exitDx=0;exitDy=0;entryX=0.5;entryY=0;entryDx=0;entryDy=0;" edge="1" parent="1" source="dcd22xgBDRz-Wt_h7stV-22" target="dcd22xgBDRz-Wt_h7stV-1">
          <mxGeometry width="50" height="50" relative="1" as="geometry">
            <mxPoint x="470" y="1260" as="sourcePoint" />
            <mxPoint x="409" y="1263" as="targetPoint" />
          </mxGeometry>
        </mxCell>
      </root>
    </mxGraphModel>
  </diagram>
</mxfile>
